Coordinates
version=1
nRows=9
nColumns=24
inDegrees=yes

Units are S.I. units (second, meters, Newtons, ...)
Angles are in degrees.

endheader
time	pelvis_tilt	pelvis_list	pelvis_rotation	pelvis_tx	pelvis_ty	pelvis_tz	hip_flexion_r	hip_adduction_r	hip_rotation_r	knee_angle_r	ankle_angle_r	subtalar_angle_r	mtp_angle_r	hip_flexion_l	hip_adduction_l	hip_rotation_l	knee_angle_l	ankle_angle_l	subtalar_angle_l	mtp_angle_l	lumbar_extension	lumbar_bending	lumbar_rotation
      1.32100000	     -0.28037365	      8.02178010	     -0.17977673	      0.35378464	      0.99497352	      0.28181846	     19.40481113	     -8.90442877	      1.33294892	    -70.15037579	     -2.65473765	     -8.93052271	      7.72622132	      8.70099308	     13.28389691	     -0.28279701	     -9.81552551	      1.81172433	     -8.31745982	      1.67481055	     -0.22559563	     -6.18650542	      2.39311710
      1.32516667	     -0.26893543	      7.95030962	     -0.04485648	      0.35869298	      0.99560511	      0.28152653	     19.94999350	     -8.81610784	      1.35557685	    -69.89594695	     -1.75408977	     -8.99166678	      4.23898880	      8.18240826	     13.26113979	      0.11918026	     -9.50387129	      1.80153115	     -8.56882065	      1.38176594	     -0.27660332	     -6.11885267	      2.23672187
      1.32933333	     -0.19174210	      7.83220765	      0.03435213	      0.36360089	      0.99628639	      0.28138496	     20.41016395	     -8.64187130	      1.42466529	    -69.56191008	     -0.98176836	     -9.33873854	      4.20857720	      7.64815334	     13.15235194	      0.24559894	     -9.29156519	      1.94680119	     -8.43716807	      1.38135551	     -0.41608041	     -5.97915551	      2.20167848
      1.33350000	     -0.12633448	      7.71477136	      0.14521790	      0.36854265	      0.99695370	      0.28119198	     20.85165624	     -8.49050313	      1.44569147	    -69.15863882	     -0.24931807	     -9.65268296	      4.17733626	      7.10887175	     13.05172345	      0.44452938	     -9.05160448	      2.06105560	     -8.39310361	      1.37847827	     -0.50978126	     -5.85390999	      2.12298410
      1.33766667	     -0.07556656	      7.62373858	      0.24439806	      0.37340063	      0.99751665	      0.28100975	     21.32096051	     -8.36262108	      1.49438700	    -68.73751125	      0.45150317	    -10.00392331	      4.11865830	      6.59047833	     12.98342770	      0.71065297	     -8.80660075	      2.13689399	     -8.44876275	      1.36753224	     -0.64211229	     -5.76026324	      1.98371785
      1.34183333	     -0.02212139	      7.50542992	      0.36327390	      0.37832063	      0.99808921	      0.28080208	     21.74853795	     -8.22365525	      1.49275781	    -68.23518410	      1.13394834	    -10.27385344	      4.07218270	      6.06536666	     12.88352755	      0.96026249	     -8.56317675	      2.21637362	     -8.50129888	      1.35718814	     -0.72766376	     -5.62066556	      1.87800283
      1.34600000	      0.05542902	      7.40793727	      0.47834701	      0.38321749	      0.99865212	      0.28057864	     22.14040031	     -8.11111841	      1.49733333	    -67.68448392	      1.71427638	    -10.60662053	      3.87410521	      5.47566782	     12.81640183	      1.35211820	     -8.23381828	      2.18735790	     -8.79312479	      1.30335492	     -0.85743674	     -5.52070188	      1.63594495
      1.35016667	      0.09653615	      7.32823456	      0.58046638	      0.38807957	      0.99908041	      0.28039610	     22.57735704	     -8.01336752	      1.52238319	    -67.11811866	      2.36901559	    -10.84946826	      3.75785422	      4.97674594	     12.75488345	      1.61304026	     -8.00127999	      2.29015031	     -8.88707974	      1.27013780	     -0.95516297	     -5.43653577	      1.53242575
      1.35433333	      0.14268884	      7.22169063	      0.69598359	      0.39295991	      0.99950383	      0.28020004	     22.97612912	     -7.89293614	      1.51983994	    -66.47700015	      2.95461164	    -11.08798742	      3.62653919	      4.46663255	     12.66446784	      1.90763431	     -7.76008978	      2.35861298	     -9.02730521	      1.22902191	     -1.04893225	     -5.31987525	      1.40143806
